<svg id="Layer_1" data-name="Layer 1" xmlns="http://www.w3.org/2000/svg" viewBox="0 0 330.35 262.48"><defs><style>.cls-1{fill:#00aeef;stroke:#00aeef;stroke-miterlimit:10;}</style></defs><path class="cls-1" d="M100,371.92a13.34,13.34,0,0,0-6.72,11.28V403c9.47-.22,13.78-6.84,19.71-14.24l34.37-50.85L109.08,337C108.21,352.1,105.92,368.45,100,371.92Z" transform="translate(-92.08 -190.74)"/><path class="cls-1" d="M383.63,293.91l-60.8.33L310,233.18l65.37-3.82c7.61,1.35,12.08-4,11.77-10.21l-.15-2.86a4.34,4.34,0,0,0-2.23-3.62l-1.49-.8h0l-2.11-1.37-2.81-1.27-2.64-.77-3.15-1.19-3.75-1.45-4.51-2-3.74-1.1-6.17-1-35.7-3.43-6.51-.68-8.3-.72-9.08-.5-1.19-.07H290a10.7,10.7,0,0,0-10.53,12.67l14.78,77.3,1.69,10.47-54.23,3.71-35.39-98.22-6.13-6.47-13.06-4.34.22.67,16.08,111.93H149.23l-36.94-55.6c-5.93-7.4-10.24-14-19.71-14.23v19.78a13.34,13.34,0,0,0,6.72,11.28c8.87,5.18,9.61,39.09,9.61,54.6,0,4.14.14,9.88.17,16.18l38.26,1.76,3.4-1.75,54.84-.87L193.37,451.42l-.17.78h.2l0,.51h.36A25.3,25.3,0,0,0,218.23,434l26.38-98.48,51.62,4.28-16.81,89.57A10.7,10.7,0,0,0,290,442h3.67a10.7,10.7,0,0,0,10.47-8.5l20.32-94.21,2,.07,58.21-2.55c7.32.23,37.28-10.66,37.28-18v-5.75C422,305.33,391.59,293,383.63,293.91Z" transform="translate(-92.08 -190.74)"/></svg>